<svg width="198.55" height="48.6" viewBox="0 0 198.55 48.6" xmlns="http://www.w3.org/2000/svg"><g id="svgGroup" stroke-linecap="round" fill-rule="evenodd" font-size="9pt" stroke="#ffffff" stroke-width="0.25mm" fill="#ffffff" style="stroke:#ffffff;stroke-width:0.25mm;fill:#ffffff"><path d="M 145.55 37 L 141.05 37 L 141.05 2 L 147.35 2 L 162.8 31.1 L 162.8 2 L 167.3 2 L 167.3 37 L 161.1 37 L 145.55 8.1 L 145.55 37 Z M 4.75 37 L 0 37 L 0 2 L 4.75 2 L 4.75 16.95 L 22 16.95 L 22 2 L 26.75 2 L 26.75 37 L 22 37 L 22 21.05 L 4.75 21.05 L 4.75 37 Z M 198.55 37 L 173.8 37 L 173.8 33.3 L 192.4 6.1 L 174.65 6.1 L 174.65 2 L 197.85 2 L 197.85 5.6 L 179.25 32.8 L 198.55 32.8 L 198.55 37 Z M 109.9 34.5 L 106.8 37.5 L 93.35 23.65 L 93.35 37 L 88.85 37 L 88.85 0 L 93.35 0 L 93.35 21.15 L 105.1 10.5 L 107.7 13.35 L 97.65 22.25 L 109.9 34.5 Z M 110.65 47.6 L 111.65 43.85 A 4.954 4.954 0 0 0 112.232 44.137 Q 112.534 44.264 112.888 44.373 A 9.272 9.272 0 0 0 113.15 44.45 A 6.757 6.757 0 0 0 114.289 44.659 A 8.679 8.679 0 0 0 115.15 44.7 Q 117.25 44.7 118.9 43.35 Q 120.55 42 122.05 38.05 L 123.2 35.05 L 120.8 35.05 L 110.65 12.2 L 114.65 10.4 L 124.35 32.05 L 131.9 10.6 L 136.05 12.2 L 126.5 38.3 A 35.864 35.864 0 0 1 125.474 40.843 Q 124.922 42.063 124.339 43.057 A 15.43 15.43 0 0 1 123.35 44.55 A 12.134 12.134 0 0 1 121.911 46.155 Q 120.954 47.039 119.902 47.559 A 7.369 7.369 0 0 1 119.6 47.7 A 10.726 10.726 0 0 1 116.272 48.544 A 13.019 13.019 0 0 1 115.05 48.6 Q 113.55 48.6 112.425 48.3 A 10.163 10.163 0 0 1 111.708 48.082 Q 111.372 47.965 111.095 47.837 A 4.307 4.307 0 0 1 110.65 47.6 Z M 35 27.9 L 35 11 L 39.5 11 L 39.5 27.3 A 11.491 11.491 0 0 0 39.627 29.067 Q 39.771 29.99 40.078 30.735 A 5.068 5.068 0 0 0 40.8 31.975 A 4.202 4.202 0 0 0 43.357 33.485 A 6.403 6.403 0 0 0 44.6 33.6 Q 46.65 33.6 48.575 32.775 Q 50.5 31.95 52 30.55 L 52 11 L 56.5 11 L 56.5 30.25 A 7.801 7.801 0 0 0 56.551 31.177 Q 56.717 32.558 57.425 33.075 Q 58.35 33.75 59.45 33.75 L 58.5 37.25 Q 53.85 37.25 52.75 33.55 Q 51 35.35 48.7 36.475 Q 46.4 37.6 43.75 37.6 Q 41.5 37.6 39.5 36.65 A 7.22 7.22 0 0 1 36.745 34.331 A 9.133 9.133 0 0 1 36.25 33.575 A 8.12 8.12 0 0 1 35.418 31.528 Q 35.157 30.543 35.059 29.372 A 17.686 17.686 0 0 1 35 27.9 Z M 63.2 34.9 L 65.1 31.15 A 9.278 9.278 0 0 0 66.672 32.213 Q 67.449 32.635 68.375 32.975 A 12.036 12.036 0 0 0 72.181 33.694 A 13.732 13.732 0 0 0 72.6 33.7 Q 75.4 33.7 76.825 32.775 A 3.725 3.725 0 0 0 77.592 32.129 A 2.526 2.526 0 0 0 78.25 30.4 A 3.561 3.561 0 0 0 78.093 29.326 A 3.106 3.106 0 0 0 77.725 28.55 A 3.192 3.192 0 0 0 77.261 28.003 Q 76.719 27.484 75.8 26.975 A 14.231 14.231 0 0 0 74.803 26.478 Q 73.572 25.919 71.75 25.3 Q 69.288 24.457 67.656 23.397 A 9.667 9.667 0 0 1 66.275 22.325 A 5.662 5.662 0 0 1 64.628 19.327 A 8.397 8.397 0 0 1 64.45 17.55 A 6.06 6.06 0 0 1 66.424 13.042 A 8.731 8.731 0 0 1 67.075 12.475 A 8.883 8.883 0 0 1 70.093 10.952 Q 71.371 10.572 72.904 10.454 A 18.764 18.764 0 0 1 74.35 10.4 A 20.397 20.397 0 0 1 76.573 10.515 Q 77.727 10.642 78.735 10.908 A 12.603 12.603 0 0 1 78.8 10.925 A 19.385 19.385 0 0 1 80.867 11.603 A 15.555 15.555 0 0 1 82.3 12.25 L 81.05 15.95 A 12.264 12.264 0 0 0 79.216 15.067 A 15.096 15.096 0 0 0 77.975 14.65 A 12.512 12.512 0 0 0 75.733 14.226 A 15.919 15.919 0 0 0 74.15 14.15 Q 71.55 14.15 70.2 15.2 Q 69.304 15.897 69.002 16.683 A 2.265 2.265 0 0 0 68.85 17.5 A 2.46 2.46 0 0 0 69.598 19.276 A 3.541 3.541 0 0 0 69.9 19.55 Q 70.933 20.386 73.899 21.367 A 42.189 42.189 0 0 0 74 21.4 Q 78.95 23.05 80.9 25.05 A 6.799 6.799 0 0 1 82.842 29.673 A 8.947 8.947 0 0 1 82.85 30.05 A 6.937 6.937 0 0 1 82.319 32.808 Q 81.625 34.428 80.025 35.575 Q 77.2 37.6 72.45 37.6 A 19.995 19.995 0 0 1 69.519 37.395 A 15.474 15.474 0 0 1 67.125 36.85 Q 64.918 36.153 63.424 35.068 A 9.114 9.114 0 0 1 63.2 34.9 Z" vector-effect="non-scaling-stroke"/></g></svg>