<svg width="397.1" height="97.2" viewBox="0 0 397.1 97.2" xmlns="http://www.w3.org/2000/svg"><g id="svgGroup" stroke-linecap="round" fill-rule="evenodd" font-size="9pt" stroke="#ffffff" stroke-width="0.25mm" fill="#ffffff" style="stroke:#ffffff;stroke-width:0.25mm;fill:#ffffff"><path d="M 291.1 74 L 282.1 74 L 282.1 4 L 294.7 4 L 325.6 62.2 L 325.6 4 L 334.6 4 L 334.6 74 L 322.2 74 L 291.1 16.2 L 291.1 74 Z M 9.5 74 L 0 74 L 0 4 L 9.5 4 L 9.5 33.9 L 44 33.9 L 44 4 L 53.5 4 L 53.5 74 L 44 74 L 44 42.1 L 9.5 42.1 L 9.5 74 Z M 397.1 74 L 347.6 74 L 347.6 66.6 L 384.8 12.2 L 349.3 12.2 L 349.3 4 L 395.7 4 L 395.7 11.2 L 358.5 65.6 L 397.1 65.6 L 397.1 74 Z M 219.8 69 L 213.6 75 L 186.7 47.3 L 186.7 74 L 177.7 74 L 177.7 0 L 186.7 0 L 186.7 42.3 L 210.2 21 L 215.4 26.7 L 195.3 44.5 L 219.8 69 Z M 221.3 95.2 L 223.3 87.7 A 9.908 9.908 0 0 0 224.465 88.274 Q 225.288 88.619 226.3 88.9 A 13.514 13.514 0 0 0 228.579 89.317 A 17.358 17.358 0 0 0 230.3 89.4 Q 234.5 89.4 237.8 86.7 A 12.003 12.003 0 0 0 239.733 84.639 Q 241.481 82.328 243.141 78.475 A 58.58 58.58 0 0 0 244.1 76.1 L 246.4 70.1 L 241.6 70.1 L 221.3 24.4 L 229.3 20.8 L 248.7 64.1 L 263.8 21.2 L 272.1 24.4 L 253 76.6 A 71.728 71.728 0 0 1 250.947 81.686 Q 249.845 84.126 248.678 86.114 A 30.86 30.86 0 0 1 246.7 89.1 A 24.268 24.268 0 0 1 243.822 92.311 Q 241.908 94.079 239.805 95.118 A 14.737 14.737 0 0 1 239.2 95.4 Q 235.1 97.2 230.1 97.2 Q 227.1 97.2 224.85 96.6 Q 222.6 96 221.3 95.2 Z M 70 55.8 L 70 22 L 79 22 L 79 54.6 A 22.981 22.981 0 0 0 79.254 58.134 Q 79.542 59.981 80.157 61.469 A 10.136 10.136 0 0 0 81.6 63.95 A 8.404 8.404 0 0 0 86.713 66.971 A 12.807 12.807 0 0 0 89.2 67.2 Q 93.3 67.2 97.15 65.55 Q 101 63.9 104 61.1 L 104 22 L 113 22 L 113 60.5 A 15.602 15.602 0 0 0 113.102 62.354 Q 113.434 65.116 114.85 66.15 Q 116.7 67.5 118.9 67.5 L 117 74.5 Q 107.7 74.5 105.5 67.1 Q 102 70.7 97.4 72.95 Q 92.8 75.2 87.5 75.2 Q 83 75.2 79 73.3 A 14.441 14.441 0 0 1 73.49 68.661 A 18.266 18.266 0 0 1 72.5 67.15 A 16.24 16.24 0 0 1 70.836 63.057 Q 70 59.905 70 55.8 Z M 126.4 69.8 L 130.2 62.3 A 18.557 18.557 0 0 0 133.344 64.426 Q 134.898 65.27 136.75 65.95 A 24.073 24.073 0 0 0 144.361 67.387 A 27.464 27.464 0 0 0 145.2 67.4 Q 150.592 67.4 153.435 65.685 A 7.738 7.738 0 0 0 153.65 65.55 Q 156.5 63.7 156.5 60.8 A 7.123 7.123 0 0 0 156.186 58.653 A 6.212 6.212 0 0 0 155.45 57.1 A 6.384 6.384 0 0 0 154.521 56.006 Q 153.507 55.034 151.834 54.081 A 22.3 22.3 0 0 0 151.6 53.95 A 28.462 28.462 0 0 0 149.606 52.957 Q 147.49 51.995 144.501 50.946 A 103.602 103.602 0 0 0 143.5 50.6 A 46.616 46.616 0 0 1 139.102 48.857 Q 136.988 47.883 135.312 46.795 A 19.335 19.335 0 0 1 132.55 44.65 A 11.324 11.324 0 0 1 129.256 38.654 A 16.794 16.794 0 0 1 128.9 35.1 Q 128.9 29.1 134.15 24.95 Q 138.554 21.469 145.808 20.908 A 37.527 37.527 0 0 1 148.7 20.8 A 40.794 40.794 0 0 1 153.146 21.031 Q 155.454 21.284 157.47 21.815 A 25.234 25.234 0 0 1 157.6 21.85 Q 161.5 22.9 164.6 24.5 L 162.1 31.9 Q 159.4 30.3 155.95 29.3 A 25.024 25.024 0 0 0 151.467 28.453 A 31.837 31.837 0 0 0 148.3 28.3 A 20.632 20.632 0 0 0 145.363 28.495 Q 142.277 28.94 140.4 30.4 A 9.322 9.322 0 0 0 139.042 31.673 Q 138.34 32.492 138.005 33.365 A 4.529 4.529 0 0 0 137.7 35 A 4.921 4.921 0 0 0 139.195 38.552 A 7.082 7.082 0 0 0 139.8 39.1 Q 141.865 40.772 147.798 42.734 A 84.459 84.459 0 0 0 148 42.8 A 67.753 67.753 0 0 1 153.062 44.698 Q 158.989 47.217 161.8 50.1 Q 165.7 54.1 165.7 60.1 Q 165.7 66.848 160.449 70.855 A 16.618 16.618 0 0 1 160.05 71.15 Q 155.31 74.547 147.862 75.095 A 40.423 40.423 0 0 1 144.9 75.2 Q 139 75.2 134.25 73.7 A 30.883 30.883 0 0 1 130.41 72.215 Q 128.429 71.284 126.848 70.136 A 18.229 18.229 0 0 1 126.4 69.8 Z" vector-effect="non-scaling-stroke"/></g></svg>